<?xml version="1.0" encoding="UTF-8"?>
<svg id="Layer_2" data-name="Layer 2" xmlns="http://www.w3.org/2000/svg" viewBox="0 0 477.56 466.49">
  <defs>
    <style>
      .cls-1 {
        fill: #231f20;
      }

      .cls-2 {
        fill: #fff;
      }

      .cls-3 {
        fill: #ef9262;
      }
    </style>
  </defs>
  <g id="cdt_logo" data-name="cdt logo">
    <g>
      <path class="cls-2" d="M241.95,461.99c-9.5,0-18.42-3.7-25.13-10.42-.22-.22-.41-.45-.58-.71-.75-.63-1.49-1.31-2.21-2.03L14.92,249.72c-6.72-6.71-10.42-15.64-10.42-25.13s3.7-18.42,10.42-25.13l107.84-107.44c6.71-6.71,15.63-10.4,25.13-10.4s18.42,3.7,25.13,10.41c6.71,6.71,10.41,15.64,10.41,25.13s-3.7,18.42-10.41,25.13l-82.5,82.51,151.41,151.41,145.96-145.96-110.34-110.34.19,108.5c0,11.13-3.58,21.62-10.08,29.55-6.72,8.19-15.72,12.71-25.35,12.71-19.53,0-35.42-18.95-35.42-42.25l-.31-188.48c0-19.54,18.78-35.43,41.86-35.43h181.33c10.87,0,22.54,4.06,30.45,10.6,8.11,6.72,12.57,15.72,12.57,25.34,0,19.54-18.78,35.43-41.86,35.43l-98.45-.29,128.63,128.63c.28.28.54.54.79.82.25.23.5.47.75.71,6.71,6.72,10.41,15.65,10.41,25.13s-3.7,18.43-10.41,25.14l-195.57,195.56c-6.71,6.72-15.64,10.42-25.13,10.42Z"/>
      <path class="cls-1" d="M429.78,9c10.32,0,20.82,3.98,27.58,9.57,6.76,5.6,10.94,13.33,10.94,21.87,0,17.08-16.72,30.93-37.36,30.93l-109.35-.32,136.34,136.34c.26.26.51.51.74.78h0c.27.24.53.49.79.75,6.06,6.07,9.09,14.01,9.09,21.95s-3.03,15.9-9.09,21.96l-195.57,195.56c-6.06,6.07-14.01,9.1-21.95,9.1s-15.89-3.03-21.95-9.1l.07-.22c-.99-.76-1.95-1.61-2.86-2.52L18.1,246.53c-12.13-12.12-12.13-31.78,0-43.9l107.84-107.43c6.06-6.06,14-9.09,21.95-9.09s15.89,3.03,21.95,9.09,9.09,14.01,9.09,21.95-3.03,15.89-9.09,21.95l-85.68,85.69,157.8,157.8.02-.07,152.28-152.28-121.22-121.22.21,119.39c0,10.42-3.46,19.86-9.06,26.69-5.6,6.83-13.33,11.06-21.87,11.06-17.08,0-30.92-16.9-30.92-37.75l-.31-188.49c0-17.08,16.73-30.92,37.36-30.92h181.34M429.78,0h-181.34c-12.07,0-23.49,3.95-32.15,11.12-9.16,7.58-14.21,17.81-14.21,28.8l.31,188.51c0,12.14,3.94,23.65,11.09,32.38,7.58,9.26,17.82,14.35,28.83,14.35s21.24-5.1,28.83-14.35c7.16-8.73,11.1-20.24,11.1-32.4l-.17-97.63,99.45,99.45-139.6,139.6L96.89,224.79l79.32-79.33c7.56-7.56,11.73-17.62,11.73-28.31s-4.16-20.75-11.73-28.31c-7.56-7.56-17.62-11.73-28.31-11.73s-20.75,4.16-28.31,11.73L11.75,196.26c-7.58,7.57-11.75,17.63-11.75,28.33s4.17,20.75,11.74,28.32l199.11,199.12c.68.68,1.37,1.32,2.07,1.93.22.28.46.55.72.81,7.56,7.57,17.62,11.74,28.32,11.74s20.75-4.17,28.32-11.74l195.57-195.56c7.56-7.56,11.73-17.62,11.73-28.32s-4.16-20.74-11.72-28.31c-.19-.19-.44-.44-.74-.71-.3-.33-.58-.6-.8-.82l-120.91-120.91,87.53.26c12.1,0,23.52-3.95,32.19-11.13,9.16-7.58,14.2-17.81,14.2-28.8s-5.04-21.22-14.2-28.8c-8.69-7.18-21.45-11.64-33.32-11.64h0Z"/>
    </g>
    <g>
      <path class="cls-3" d="M35.38,76.18c-16.91,0-30.68-15.89-30.68-35.43S18.47,5.33,35.39,5.33l133.29.52c16.91,0,30.68,15.89,30.68,35.43s-13.77,35.43-30.7,35.43c0,0-133.29-.52-133.29-.52Z"/>
      <path class="cls-1" d="M35.39,9.83l133.28.52c14.47,0,26.2,13.85,26.2,30.93h0c0,17.08-11.73,30.93-26.2,30.93l-133.28-.52c-14.47,0-26.2-13.85-26.2-30.93h0c0-17.08,11.73-30.93,26.2-30.93M35.39.83C15.98.83.19,18.74.19,40.75s15.79,39.93,35.2,39.93l133.24.52c19.44,0,35.24-17.91,35.24-39.93S188.08,1.35,168.67,1.35L35.43.83s-.02,0-.04,0h0Z"/>
    </g>
  </g>
</svg>