<svg xmlns:xlink="http://www.w3.org/1999/xlink" xmlns="http://www.w3.org/2000/svg" viewBox="0 0 91.12 82.02173913043478" stroke-miterlimit="2" stroke-linejoin="round" fill-rule="evenodd" clip-rule="evenodd" style="max-height: 500px" width="91.12" height="82.02173913043478"><clipPath id="a"><path d="m0 0h335v77h-335z" clip-rule="evenodd"/></clipPath><path fill="none" d="m0 0h335v77h-335z"/><g fill-rule="nonzero" clip-path="url(#a)"><path fill-opacity=".8" fill="#32188e" d="m303.775 65.592v1.05h.047c.094-.146.217-.295.369-.446.151-.152.337-.288.556-.408.22-.12.468-.22.745-.298.277-.079.588-.118.933-.118.534 0 1.025.102 1.475.306.449.204.836.484 1.16.839s.575.774.753 1.255.267.998.267 1.552-.087 1.075-.259 1.561c-.173.486-.418.909-.737 1.27s-.706.648-1.161.863c-.455.214-.97.321-1.545.321-.533 0-1.022-.11-1.466-.329-.444-.22-.787-.518-1.027-.894h-.032v4.768h-1.882v-11.292zm23.18 0h2.085l2.102 5.473h.031l1.867-5.473h1.96l-3.56 9.143c-.136.345-.282.651-.439.917-.157.267-.345.492-.565.675-.219.183-.478.321-.776.415s-.656.142-1.074.142c-.157 0-.317-.008-.479-.024s-.326-.044-.494-.086l.157-1.631c.126.042.248.07.369.086.12.016.232.023.337.023.198 0 .366-.023.502-.07s.251-.12.345-.22c.094-.099.177-.222.251-.368.073-.147.151-.319.235-.518l.376-.956zm-198.257-5.193c0-1.411-1.146-2.557-2.557-2.557h-12.408c-1.412 0-2.558 1.146-2.558 2.557v12.408c0 1.412 1.146 2.558 2.558 2.558h12.408c1.411 0 2.557-1.146 2.557-2.558zm-8.76-.556c.297.558.589 1.119.893 1.674.122.212.383.321.62.259l.843-.231c-.184 1.069-.379 2.136-.552 3.207-.017.12.002.122.03.172.086.151.325.18.444.044l1.288-1.509c.066.296.09.617.225.8.132.18.375.261.593.201l1.373-.399c-.082.608-.169 1.216-.244 1.825-.023.223.098.448.299.55l.744.372c-1.103.63-2.281 1.227-3.288 1.881-.295.201-.423.597-.302.933l.277.742c-.931-.08-1.86-.197-2.794-.239-.142-.002-.268.123-.265.266l.087 2.974h-.546c.029-.996.099-1.992.087-2.988-.005-.142-.137-.261-.28-.251l-2.778.238c.136-.364.327-.727.327-1.018 0-.277-.156-.543-.397-.685l-3.242-1.853c.502-.251 1.101-.444 1.041-.933l-.242-1.814c.476.138.922.301 1.415.41.281.054.577-.135.644-.418l.131-.594c.437.512.834 1.041 1.306 1.527.168.159.495.004.455-.24l-.55-3.201c.575.158 1.214.427 1.469-.039 0 0 .888-1.722.888-1.663h.001zm49.339 11.74c-.491.564-1.098 1.011-1.819 1.341-.722.329-1.553.494-2.494.494-.857 0-1.649-.142-2.376-.424-.726-.282-1.356-.682-1.89-1.2-.533-.517-.951-1.137-1.254-1.858-.303-.722-.455-1.516-.455-2.384 0-.889.154-1.694.463-2.415.308-.722.734-1.336 1.278-1.843s1.181-.896 1.913-1.168 1.521-.408 2.368-.408c.784 0 1.556.139 2.314.416s1.372.682 1.842 1.215l-1.819 1.819c-.251-.345-.58-.601-.988-.768s-.826-.251-1.255-.251c-.47 0-.901.086-1.293.259-.393.172-.73.41-1.012.713s-.502.662-.659 1.075c-.157.412-.235.865-.235 1.356 0 .502.078.962.235 1.38s.374.777.651 1.074c.277.298.609.531.996.698.387.168.81.251 1.27.251.534 0 .999-.104 1.396-.313s.716-.481.957-.816zm80.595-2.4c0 .638-.115 1.216-.345 1.733-.23.518-.543.957-.941 1.317-.397.361-.857.641-1.38.84-.523.198-1.082.298-1.678.298-.585 0-1.142-.1-1.67-.298-.528-.199-.988-.479-1.38-.84-.392-.36-.703-.799-.933-1.317-.23-.517-.345-1.095-.345-1.733s.115-1.213.345-1.725.541-.946.933-1.302c.392-.355.852-.627 1.38-.815s1.085-.283 1.67-.283c.596 0 1.155.095 1.678.283s.983.46 1.38.815c.398.356.711.79.941 1.302s.345 1.087.345 1.725zm-14.522-1.349c-.147-.188-.345-.339-.596-.454s-.507-.173-.769-.173c-.271 0-.517.055-.737.165-.219.11-.407.256-.564.439s-.28.395-.369.635-.133.497-.133.768c0 .272.042.528.125.769.084.24.207.452.369.635s.355.327.58.431c.225.105.478.157.761.157.261 0 .52-.049.776-.149.256-.099.463-.243.62-.431l1.427 1.741c-.324.313-.743.559-1.255.737s-1.056.267-1.631.267c-.617 0-1.192-.095-1.725-.283s-.996-.462-1.388-.823-.701-.797-.925-1.31c-.225-.512-.338-1.092-.338-1.741 0-.637.113-1.212.338-1.725.224-.512.533-.948.925-1.309s.855-.638 1.388-.831c.533-.194 1.103-.291 1.709-.291.283 0 .562.027.839.079s.544.123.8.212c.256.088.492.198.706.329s.4.274.557.431zm30.754 5.286v-1.02h-.031c-.251.397-.609.703-1.074.918-.466.214-.96.321-1.482.321-.586 0-1.109-.115-1.569-.345s-.849-.536-1.168-.917c-.319-.382-.562-.824-.729-1.326-.168-.501-.251-1.024-.251-1.568s.086-1.064.258-1.56c.173-.497.419-.933.738-1.31.318-.376.705-.674 1.16-.894.455-.219.965-.329 1.529-.329.575 0 1.061.11 1.459.329.397.22.706.46.925.722h.031v-4.878h2.572v11.857zm-64.034 0v-1.02h-.031c-.251.397-.609.703-1.074.918-.466.214-.96.321-1.482.321-.586 0-1.109-.115-1.569-.345s-.849-.536-1.168-.917c-.319-.382-.562-.824-.729-1.326-.168-.501-.251-1.024-.251-1.568s.086-1.064.259-1.56c.172-.497.418-.933.737-1.31.319-.376.705-.674 1.16-.894.455-.219.965-.329 1.529-.329.575 0 1.062.11 1.459.329.397.22.706.46.925.722h.031v-4.878h2.573v11.857zm75.436-5.442c-.146-.21-.366-.385-.659-.526s-.591-.212-.894-.212c-.345 0-.648.071-.909.212-.262.141-.479.327-.651.557-.173.23-.301.489-.384.776-.084.288-.126.578-.126.871 0 .292.045.583.133.87.089.288.223.546.4.776.178.23.4.416.667.557.266.141.578.212.933.212.293 0 .586-.058.878-.173.293-.115.528-.282.706-.502l1.176 1.192c-.313.335-.713.594-1.2.777-.486.183-1.011.274-1.576.274-.554 0-1.079-.089-1.576-.266-.496-.178-.93-.44-1.302-.785-.371-.345-.663-.763-.878-1.254-.214-.492-.321-1.051-.321-1.678 0-.607.107-1.156.321-1.647.215-.491.505-.91.871-1.255s.792-.611 1.278-.8c.486-.188 1.006-.282 1.56-.282s1.09.105 1.608.314c.517.209.928.496 1.231.862zm1.6 1.646c0-.596.107-1.137.321-1.623s.505-.902.87-1.247c.366-.345.8-.611 1.302-.8.502-.188 1.035-.282 1.6-.282.564 0 1.098.094 1.6.282.501.189.935.455 1.301.8s.656.761.871 1.247c.214.486.321 1.027.321 1.623s-.107 1.14-.321 1.631c-.215.492-.505.913-.871 1.263s-.8.625-1.301.823c-.502.199-1.036.298-1.6.298-.565 0-1.098-.099-1.6-.298-.502-.198-.936-.473-1.302-.823-.365-.35-.656-.771-.87-1.263-.214-.491-.321-1.035-.321-1.631zm-22.929 3.796v-1.083h-.031c-.095.178-.217.345-.369.502s-.329.293-.533.408-.429.209-.675.282c-.245.074-.504.11-.776.11-.523 0-.964-.094-1.325-.282s-.654-.431-.878-.729c-.225-.298-.387-.638-.487-1.02-.099-.381-.149-.771-.149-1.168v-4.831h2.588v4.235c0 .219.016.429.047.627.032.199.092.377.181.533.088.157.206.28.352.369.147.089.34.133.581.133.449 0 .792-.167 1.027-.502.235-.334.353-.726.353-1.176v-4.219h2.572v7.811zm-99.917-3.67v.251c0 .083-.005.167-.016.251h-5.724c.021.271.092.52.212.745.12.224.28.418.478.58.199.162.424.29.675.384s.512.141.784.141c.47 0 .868-.086 1.192-.259.324-.172.59-.41.799-.713l1.255 1.004c-.742 1.003-1.819 1.505-3.231 1.505-.585 0-1.124-.091-1.615-.274s-.917-.442-1.278-.777c-.361-.334-.643-.745-.847-1.231s-.306-1.037-.306-1.654c0-.607.102-1.158.306-1.655s.484-.92.839-1.27c.356-.35.776-.622 1.263-.816.486-.193 1.011-.29 1.576-.29.522 0 1.006.086 1.45.259.445.172.829.429 1.153.768.324.34.578.764.761 1.271s.274 1.1.274 1.78zm159.842 2.713h-.047c-.188.334-.492.609-.91.823-.418.215-.894.322-1.427.322-.303 0-.619-.039-.949-.118-.329-.078-.632-.209-.909-.392s-.507-.423-.69-.721-.275-.667-.275-1.106c0-.565.16-1.014.478-1.349.319-.334.73-.59 1.232-.768.501-.178 1.058-.296 1.67-.353.611-.058 1.21-.086 1.796-.086v-.189c0-.47-.17-.818-.51-1.042-.34-.225-.745-.338-1.216-.338-.397 0-.779.084-1.144.251-.366.168-.67.371-.91.612l-.972-1.145c.428-.397.922-.695 1.482-.894.559-.199 1.126-.298 1.701-.298.669 0 1.221.094 1.655.282.434.189.776.434 1.027.738.251.303.426.643.525 1.019.1.376.149.753.149 1.129v4.58h-1.756zm-106.033-5.787c.46-.439.996-.769 1.607-.988.612-.22 1.237-.33 1.874-.33.659 0 1.216.082 1.671.244.454.162.823.413 1.105.752.283.34.489.769.62 1.286.13.518.196 1.132.196 1.843v3.937h-2.353v-.832h-.047c-.198.324-.499.575-.901.753-.403.178-.84.267-1.31.267-.314 0-.638-.042-.972-.126-.335-.083-.641-.219-.918-.407-.277-.189-.504-.44-.682-.753-.178-.314-.267-.701-.267-1.161 0-.564.155-1.019.463-1.364s.706-.612 1.192-.8 1.027-.314 1.623-.376c.596-.063 1.176-.095 1.741-.095v-.125c0-.387-.136-.672-.408-.855s-.606-.274-1.004-.274c-.365 0-.718.078-1.058.235s-.63.345-.871.565zm-22.427 0c.46-.439.996-.769 1.607-.988.612-.22 1.237-.33 1.875-.33.658 0 1.215.082 1.67.244s.823.413 1.105.752c.283.34.489.769.62 1.286.131.518.196 1.132.196 1.843v3.937h-2.352v-.832h-.047c-.199.324-.5.575-.902.753-.403.178-.839.267-1.31.267-.313 0-.638-.042-.972-.126-.335-.083-.641-.219-.918-.407-.277-.189-.504-.44-.682-.753-.178-.314-.266-.701-.266-1.161 0-.564.154-1.019.462-1.364.309-.345.706-.612 1.192-.8s1.027-.314 1.623-.376c.596-.063 1.177-.095 1.741-.095v-.125c0-.387-.136-.672-.408-.855-.271-.183-.606-.274-1.003-.274-.366 0-.719.078-1.059.235s-.63.345-.87.565zm-17.596 0c.46-.439.995-.769 1.607-.988.612-.22 1.236-.33 1.874-.33.659 0 1.216.082 1.67.244.455.162.824.413 1.106.752.282.34.489.769.62 1.286.13.518.196 1.132.196 1.843v3.937h-2.353v-.832h-.047c-.199.324-.499.575-.902.753-.402.178-.839.267-1.309.267-.314 0-.638-.042-.973-.126-.334-.083-.64-.219-.917-.407-.277-.189-.504-.44-.682-.753-.178-.314-.267-.701-.267-1.161 0-.564.154-1.019.463-1.364.308-.345.706-.612 1.192-.8s1.027-.314 1.623-.376c.596-.063 1.176-.095 1.741-.095v-.125c0-.387-.136-.672-.408-.855s-.606-.274-1.004-.274c-.366 0-.719.078-1.058.235-.34.157-.63.345-.871.565zm53.667 6.744v-4.266c0-.22-.018-.429-.055-.628-.036-.198-.097-.373-.18-.525-.084-.152-.202-.272-.353-.361-.152-.089-.343-.133-.573-.133s-.431.044-.603.133c-.173.089-.317.212-.432.369s-.201.337-.258.541c-.058.204-.087.416-.087.635v4.235h-2.587v-7.811h2.493v1.083h.032c.094-.168.217-.332.368-.494.152-.163.33-.301.533-.416.204-.115.426-.209.667-.282.24-.074.497-.11.768-.11.523 0 .968.094 1.333.282.366.188.662.431.887.729.224.298.386.641.486 1.028.099.386.149.773.149 1.16v4.831zm-17.675 0v-7.811h2.572v7.811zm113.389-7.528h1.788v1.207h.031c.167-.376.457-.708.87-.996.413-.287.902-.431 1.467-.431.491 0 .912.086 1.262.259.35.172.638.4.863.682s.389.607.494.972c.104.366.157.743.157 1.13v4.705h-1.882v-4.172c0-.22-.016-.45-.047-.69-.032-.241-.1-.458-.204-.651-.105-.193-.249-.353-.432-.478-.183-.126-.426-.189-.729-.189s-.564.061-.784.181-.4.274-.541.462c-.141.189-.248.406-.322.651-.073.246-.109.494-.109.745v4.141h-1.882zm-21.8-.22c.492 0 .912.086 1.263.259.35.172.638.4.862.682.225.282.39.607.494.972.105.366.157.743.157 1.13v4.705h-1.882v-4.172c0-.22-.015-.45-.047-.69-.031-.241-.099-.458-.204-.651-.104-.193-.248-.353-.431-.478-.183-.126-.426-.189-.729-.189-.293 0-.544.063-.753.189-.209.125-.382.287-.518.486-.136.198-.235.421-.298.666-.062.246-.094.489-.094.73v4.109h-1.882v-4.549c0-.47-.112-.859-.337-1.168-.225-.308-.577-.463-1.058-.463-.283 0-.528.061-.738.181-.209.12-.379.274-.509.462-.131.189-.23.406-.298.651-.068.246-.102.494-.102.745v4.141h-1.882v-7.528h1.788v1.207h.031c.084-.188.196-.366.337-.533s.309-.319.502-.455c.194-.136.416-.243.667-.321.251-.079.528-.118.831-.118.585 0 1.072.131 1.458.392.387.262.685.607.894 1.035.251-.46.586-.813 1.004-1.058.418-.246.91-.369 1.474-.369zm-60.207 7.748v-11.857h2.603v11.857zm-92.687-7.748c.492 0 .912.086 1.263.259.35.172.637.4.862.682s.39.607.494.972c.105.366.157.743.157 1.13v4.705h-1.882v-4.141c0-.219-.016-.447-.047-.682s-.097-.45-.196-.643-.241-.353-.423-.478c-.183-.126-.427-.188-.73-.188s-.564.057-.784.172c-.219.115-.402.269-.549.463-.146.193-.256.41-.329.651-.073.24-.11.486-.11.737v4.109h-1.882v-11.857h1.882v5.379h.031c.074-.156.181-.311.322-.462.141-.152.306-.288.494-.408s.402-.217.643-.29c.24-.073.502-.11.784-.11zm38.957 7.748v-4.266c0-.22-.018-.429-.055-.628-.037-.198-.097-.373-.18-.525-.084-.152-.202-.272-.353-.361-.152-.089-.343-.133-.573-.133s-.431.044-.604.133c-.172.089-.316.212-.431.369s-.201.337-.259.541c-.057.204-.086.416-.086.635v4.235h-2.588v-7.811h2.494v1.083h.031c.095-.168.217-.332.369-.494.152-.163.329-.301.533-.416s.426-.209.667-.282c.24-.074.496-.11.768-.11.523 0 .967.094 1.333.282s.662.431.886.729c.225.298.387.641.487 1.028.099.386.149.773.149 1.16v4.831zm-49.276-9.379h-3.404v-1.725h8.783v1.725h-3.403v9.379h-1.976zm181.657 5.944h-.424c-.303 0-.622.013-.957.039-.334.026-.643.084-.925.173s-.517.214-.706.376c-.188.162-.282.384-.282.667 0 .177.039.326.118.447.078.12.18.217.306.29.125.073.266.125.423.157.157.031.314.047.47.047.649 0 1.14-.173 1.475-.518.334-.345.502-.815.502-1.411zm-35.052-.361c0 .293.044.586.133.879.089.292.222.554.4.784s.403.418.674.564c.272.147.596.22.973.22.376 0 .7-.073.972-.22.272-.146.497-.334.675-.564.177-.23.311-.492.399-.784.089-.293.134-.586.134-.879 0-.292-.045-.583-.134-.87-.088-.288-.222-.546-.399-.776-.178-.23-.403-.416-.675-.557s-.596-.212-.972-.212c-.377 0-.701.071-.973.212-.271.141-.496.327-.674.557s-.311.488-.4.776c-.089.287-.133.578-.133.87zm27.147 0c0-.292-.044-.583-.133-.87-.089-.288-.222-.546-.4-.776s-.402-.416-.674-.557-.591-.212-.957-.212c-.345 0-.653.073-.925.22-.272.146-.505.334-.698.564-.194.23-.34.492-.439.784-.1.293-.149.586-.149.879 0 .292.049.583.149.87.099.288.245.546.439.776.193.23.426.416.698.557s.58.212.925.212c.366 0 .685-.073.957-.22.272-.146.496-.334.674-.564s.311-.492.4-.784c.089-.293.133-.586.133-.879zm-93.377.392h-.329c-.282 0-.567.013-.855.04-.287.026-.543.075-.768.149-.225.073-.411.18-.557.321s-.22.327-.22.557c0 .146.034.272.102.376.068.105.155.188.259.251.105.063.225.107.361.133.136.027.267.04.392.04.523 0 .923-.144 1.2-.432.277-.287.415-.677.415-1.168zm-22.426 0h-.33c-.282 0-.567.013-.855.04-.287.026-.543.075-.768.149-.225.073-.41.18-.557.321-.146.141-.219.327-.219.557 0 .146.034.272.102.376.068.105.154.188.258.251.105.063.225.107.361.133.136.027.267.04.392.04.523 0 .923-.144 1.2-.432.277-.287.416-.677.416-1.168zm-17.597 0h-.329c-.282 0-.567.013-.855.04-.287.026-.544.075-.768.149-.225.073-.411.18-.557.321-.147.141-.22.327-.22.557 0 .146.034.272.102.376.068.105.154.188.259.251s.225.107.361.133c.136.027.266.04.392.04.523 0 .922-.144 1.2-.432.277-.287.415-.677.415-1.168zm72.628-.533c0-.251-.041-.497-.125-.737s-.204-.452-.361-.635-.35-.332-.58-.447-.497-.173-.8-.173-.57.058-.8.173-.421.264-.572.447c-.152.183-.267.395-.345.635-.079.24-.118.486-.118.737s.039.497.118.737c.078.241.196.458.353.651.157.194.35.348.58.463s.497.172.8.172.57-.057.8-.172.423-.269.58-.463c.157-.193.274-.41.353-.651.078-.24.117-.486.117-.737zm18.616.016c0-.251-.044-.497-.133-.737-.089-.241-.214-.455-.376-.643-.163-.188-.359-.34-.589-.455s-.491-.173-.784-.173c-.303 0-.57.058-.8.173s-.423.264-.58.447-.274.395-.353.635c-.078.24-.117.486-.117.737s.039.499.117.745c.079.246.196.463.353.651s.35.34.58.455.497.172.8.172c.293 0 .554-.057.784-.172s.426-.267.589-.455c.162-.188.287-.403.376-.643.089-.241.133-.486.133-.737zm-64.034 0c0-.251-.044-.497-.133-.737-.089-.241-.214-.455-.376-.643s-.359-.34-.589-.455-.491-.173-.784-.173c-.303 0-.57.058-.8.173s-.423.264-.58.447-.274.395-.353.635c-.078.24-.117.486-.117.737s.039.499.117.745c.079.246.196.463.353.651s.35.34.58.455.497.172.8.172c.293 0 .554-.057.784-.172s.427-.267.589-.455.287-.403.376-.643c.089-.241.133-.486.133-.737zm-47.598-.596c0-.241-.034-.471-.102-.69-.068-.22-.175-.413-.321-.58-.147-.168-.332-.301-.557-.4-.225-.1-.489-.149-.792-.149-.565 0-1.043.17-1.435.509-.392.34-.609.777-.651 1.31zm54.42-5.787c0 .198-.039.384-.117.557-.079.172-.183.321-.314.447-.131.125-.287.224-.47.298-.183.073-.374.109-.573.109-.418 0-.768-.138-1.051-.415-.282-.277-.423-.609-.423-.996 0-.188.037-.369.11-.541.073-.173.178-.322.313-.447.136-.126.293-.228.471-.306s.371-.118.58-.118c.199 0 .39.037.573.11s.339.173.47.298c.131.126.235.275.314.447.078.173.117.358.117.557z"/><path fill="#32188e" d="m12.261 59.294-10.517 1.754c-1.09.185-1.97 1.125-1.97 2.101v9.463c0 .981.88 1.768 1.97 1.768h10.517c1.084 0 1.971-.937 1.971-2.101v-11.203c0-1.161-.887-1.954-1.971-1.782zm13.474-26.056-23.991 8.942c-1.09.406-1.97 1.531-1.97 2.508v9.454c0 .986.88 1.594 1.97 1.369l23.991-4.95c1.089-.22 1.974-1.483 1.974-2.816v-12.836c0-1.325-.885-2.075-1.974-1.671zm147.868-18.358h9.755v29.821c0 .558.184 1.022.557 1.394.37.372.835.557 1.393.557h3.345v7.246c-.744.111-1.506.203-2.285.278-.67.074-1.394.14-2.175.196-.78.056-1.524.083-2.229.083-2.528 0-4.553-.761-6.076-2.285-1.524-1.523-2.285-3.548-2.285-6.075zm18.951 0h9.755v29.821c0 .558.185 1.022.558 1.394.369.372.835.557 1.392.557h3.345v7.246c-.743.111-1.506.203-2.285.278-.669.074-1.394.14-2.175.196-.78.056-1.524.083-2.229.083-2.528 0-4.553-.761-6.075-2.285-1.525-1.523-2.286-3.548-2.286-6.075zm-33.165 39.018-.557-2.787c-.968.632-2.007 1.19-3.122 1.672-.967.409-2.044.79-3.232 1.143-1.19.353-2.417.529-3.679.529h-2.509c-2.527 0-4.552-.761-6.076-2.285-1.523-1.523-2.285-3.548-2.285-6.075v-21.739h9.755v20.066c0 .557.186 1.023.557 1.394.372.372.836.557 1.394.557h1.95c.706 0 1.449-.055 2.231-.167.779-.111 1.504-.241 2.173-.39.78-.148 1.541-.334 2.285-.557v-20.903h9.755v29.542zm-32.606-31.939c-.558 0-1.023.182-1.394.544-.372.363-.558.817-.558 1.361v2.722h9.197v7.524h-9.197v19.787h-9.754v-19.787h-3.902v-7.524h3.902v-3.813c0-2.47.762-4.449 2.285-5.938 1.524-1.489 3.549-2.234 6.075-2.234h13.379v7.773c-1.079 0-2.193-.082-3.346-.249-.966-.11-2.043-.166-3.232-.166zm-86.924-21.502-38.115 22.064c-1.09.634-1.97 1.931-1.97 2.914v9.457c0 .98.88 1.407 1.97.964l38.115-15.72c1.089-.448 1.974-2.032 1.974-3.539v-14.547c0-1.514-.885-2.223-1.974-1.593z"/><path fill="#f05228" d="m88.25 61.048-10.515-1.754c-1.086-.172-1.969.621-1.969 1.783v11.202c0 1.164.883 2.101 1.969 2.101h10.515c1.087 0 1.973-.787 1.973-1.768v-9.463c0-.976-.886-1.916-1.973-2.101zm-27.599-4.598-10.511-1.742c-1.089-.184-1.973.892-1.973 2.397v14.549c0 1.512.884 2.726 1.973 2.726h10.511c1.09 0 1.97-1.067 1.97-2.395v-12.798c0-1.328-.88-2.553-1.97-2.737zm27.599-14.27-38.11-14.207c-1.089-.403-1.973.49-1.973 1.993v14.55c0 1.509.884 2.906 1.973 3.134l38.11 7.861c1.087.224 1.973-.383 1.973-1.369v-9.454c0-.977-.886-2.102-1.973-2.508zm188.469 3.357c0 2.788-.79 4.971-2.369 6.549-1.579 1.581-3.762 2.37-6.549 2.37h-12.82c-2.787 0-4.97-.789-6.549-2.37-1.58-1.578-2.369-3.761-2.369-6.549v-12.82c0-2.787.789-4.969 2.369-6.549 1.579-1.579 3.762-2.369 6.549-2.369h12.82c2.787 0 4.97.79 6.549 2.369 1.579 1.58 2.369 3.762 2.369 6.549zm48.771-21.237h6.968v7.525h-6.968v12.82c0 .558.186 1.023.557 1.394.371.372.837.557 1.394.557h7.246v7.273c-1.078.149-2.211.223-3.4.223-1.003.168-2.137.251-3.4.251h-3.79c-2.528 0-4.553-.758-6.076-2.279-1.524-1.519-2.286-3.539-2.286-6.06v-14.179h-3.344v-7.525h3.344l1.116-6.661h8.639zm-35.673 9.253c0 .557.187 1.023.558 1.394.371.372.836.557 1.394.557h10.033c2.527 0 4.551.755 6.075 2.265s2.286 3.518 2.286 6.022v2.21c0 2.505-.762 4.512-2.286 6.022s-3.548 2.266-6.075 2.266h-7.302c-2.49 0-4.775-.168-6.856-.5-2.415 0-4.757-.147-7.023-.439v-7.228c2.006.215 4.032.428 6.076.641h11.761c.558 0 1.022-.177 1.392-.533.372-.355.558-.8.558-1.334v-1.867h-11.983c-2.528 0-4.553-.761-6.077-2.286-1.523-1.522-2.284-3.548-2.284-6.075v-1.951c0-2.526.761-4.551 2.284-6.076 1.524-1.523 3.549-2.285 6.077-2.285h18.951v7.247h-15.607c-.558 0-1.023.186-1.394.557s-.558.836-.558 1.393zm-59.917-2.118h-4.321c-.798 0-1.514.076-2.145.226-.744.226-1.469.414-2.174.564v21.673h-9.754v-39.018h9.754v10.062c1.077-.229 2.174-.42 3.289-.572.965-.151 1.996-.285 3.094-.4 1.094-.113 2.125-.171 3.093-.171h2.508c2.526 0 4.551.762 6.075 2.285 1.523 1.525 2.285 3.549 2.285 6.076v21.738h-9.754v-20.522c0-.554-.186-1.016-.557-1.386-.372-.37-.836-.555-1.393-.555zm37.065 2.118c0-1.485-.744-2.229-2.229-2.229h-6.69c-1.486 0-2.229.744-2.229 2.229v11.148c0 1.487.743 2.229 2.229 2.229h6.69c1.485 0 2.229-.742 2.229-2.229zm-178.715-11.032-10.515-6.09c-1.086-.624-1.969-.197-1.969.969v11.203c0 1.164.883 2.465 1.969 2.919l10.515 4.334c1.087.443 1.973.017 1.973-.963v-9.459c0-.982-.886-2.278-1.973-2.913zm-38.11-2.385 10.511 4.341c1.09.444 1.97-.263 1.97-1.593v-12.798c0-1.33-.88-2.905-1.97-3.541l-10.511-6.088c-1.089-.63-1.973.079-1.973 1.593v14.547c0 1.507.884 3.091 1.973 3.539z"/></g></svg>